<svg width="590" height="444" viewBox="0 0 590 444" fill="none" xmlns="http://www.w3.org/2000/svg">
<g clip-path="url(#clip0)">
<path d="M239.255 7.97933C227.795 11.4907 216.899 16.6306 206.902 23.2413C188.106 35.8476 173.617 53.7651 157.127 69.256C130.224 94.5908 98.0076 113.516 69.0894 136.561C40.1711 159.607 13.5736 188.452 4.47366 224.226C-13.0086 293.026 22.2766 390.001 83.6401 427.957C121.261 451.216 170.258 446.454 211.665 430.918C253.073 415.381 290.267 390.275 331.125 373.35C339.339 369.962 348.042 366.848 356.883 367.733C365.723 368.619 373.342 373.212 381.312 376.891C406.999 388.863 435.962 391.872 463.563 385.437C479.681 381.41 495.031 374.769 509.001 365.78C558.089 334.844 591.832 278.482 589.924 220.502C588.015 162.522 547.355 106.281 491.214 91.5536C472.434 86.624 452.692 86.1509 433.896 81.2518C409.039 81.2518 385.465 44.2875 370.777 28.7813C363.326 20.9214 355.692 12.9089 346.103 7.90302C334.973 2.08823 322.101 0.760442 309.566 0.27206C285.931 -0.750489 261.593 0.958849 239.255 7.97933Z" fill="#FA251B" fill-opacity="0.8"/>
<path opacity="0.14" d="M233.789 376.176C226.873 383.135 215.559 382.403 206.306 385.898L208.138 388.187C207.497 389.896 205.207 390.141 203.375 390.095C184.03 389.591 163.952 390.522 144.744 388.447C148.378 383.792 154.134 383.486 159.448 382.571C167.586 381.182 175.54 379.015 183.739 377.855C200.303 375.382 217.097 374.818 233.789 376.176Z" fill="#020202"/>
<path d="M343.34 339.761H215.406L229.239 295.288H326.147L343.34 339.761Z" fill="#68E1FD"/>
<path opacity="0.14" d="M225.697 306.658L337.416 324.408L326.147 295.288H229.239L225.697 306.658Z" fill="#020202"/>
<path d="M433.026 111.519H140.499C129.697 111.519 120.941 120.272 120.941 131.069V278.896C120.941 289.694 129.697 298.447 140.499 298.447H433.026C443.828 298.447 452.585 289.694 452.585 278.896V131.069C452.585 120.272 443.828 111.519 433.026 111.519Z" fill="#68E1FD"/>
<path d="M433.026 111.931H140.499C129.697 111.931 120.941 120.684 120.941 131.482V279.309C120.941 290.106 129.697 298.859 140.499 298.859H433.026C443.828 298.859 452.585 290.106 452.585 279.309V131.482C452.585 120.684 443.828 111.931 433.026 111.931Z" fill="url(#paint0_linear)"/>
<path d="M452.6 276.699V278.881C452.6 289.687 443.836 298.432 432.263 305.574H139.721C129.705 298.432 120.941 289.687 120.941 278.881V276.699H452.6Z" fill="#68E1FD"/>
<path d="M358.287 335.121H202.535V339.746H358.287V335.121Z" fill="#68E1FD"/>
<path d="M121.032 243.519H160.394C161.705 243.499 163 243.221 164.204 242.701C165.408 242.181 166.497 241.429 167.411 240.488C168.324 239.547 169.042 238.436 169.526 237.217C170.009 235.998 170.247 234.696 170.227 233.385V147.14C170.247 145.829 170.009 144.527 169.526 143.309C169.042 142.09 168.324 140.978 167.411 140.037C166.497 139.096 165.408 138.344 164.204 137.824C163 137.304 161.705 137.026 160.394 137.006H121.032V243.519Z" fill="url(#paint1_linear)"/>
<path d="M154.424 137.006H70.7688C65.8358 137.006 61.8369 141.004 61.8369 145.935V227.952C61.8369 232.883 65.8358 236.88 70.7688 236.88H154.424C159.357 236.88 163.356 232.883 163.356 227.952V145.935C163.356 141.004 159.357 137.006 154.424 137.006Z" fill="white"/>
<path d="M89.0145 153.535H138.102C137.843 154.268 137.675 154.863 137.431 155.443C129.399 174.652 121.399 193.872 113.429 213.102C112.742 214.781 111.902 215.529 110.054 215.346C108.274 215.254 106.491 215.254 104.71 215.346L127.613 160.113H101.199L106.924 169.423L97.3205 179.358H113.306C112.284 181.556 111.444 183.464 110.497 185.31C110.348 185.467 110.168 185.59 109.968 185.671C109.768 185.753 109.553 185.791 109.337 185.783H83.3805C83.2126 185.783 83.0446 185.646 82.2659 184.898C82.9419 184.655 83.5794 184.315 84.1592 183.891C88.5718 179.557 92.9232 175.146 97.3663 170.827C97.5582 170.692 97.7212 170.52 97.846 170.321C97.9708 170.122 98.0548 169.901 98.0931 169.669C98.1315 169.438 98.1234 169.201 98.0694 168.973C98.0154 168.744 97.9166 168.529 97.7786 168.339L97.6717 168.202L89.0145 153.535Z" fill="#68E1FD"/>
<path opacity="0.18" d="M224.399 213.163C240.868 213.163 254.218 199.818 254.218 183.357C254.218 166.895 240.868 153.55 224.399 153.55C207.93 153.55 194.58 166.895 194.58 183.357C194.58 199.818 207.93 213.163 224.399 213.163Z" fill="white"/>
<path opacity="0.18" d="M401.268 213.163C417.736 213.163 431.087 199.818 431.087 183.357C431.087 166.895 417.736 153.55 401.268 153.55C384.799 153.55 371.449 166.895 371.449 183.357C371.449 199.818 384.799 213.163 401.268 213.163Z" fill="white"/>
<path d="M222.567 205.38V199.962C219.67 199.962 216.83 199.154 214.368 197.627L215.62 194.01C217.896 195.474 220.547 196.253 223.254 196.253C227.102 196.253 229.651 194.055 229.651 191.003C229.651 187.951 227.56 186.226 223.544 184.608C218.063 182.472 214.673 180.03 214.688 175.344C214.688 170.903 217.834 167.515 222.765 166.691V161.288H226.155V166.477C228.602 166.492 231.004 167.133 233.133 168.339L231.82 171.941C229.774 170.728 227.434 170.1 225.056 170.125C220.933 170.125 219.376 172.612 219.376 174.703C219.376 177.496 221.376 178.885 226.033 180.808C231.575 183.052 234.354 185.829 234.369 190.606C234.369 194.834 231.423 198.817 225.911 199.763V205.319L222.567 205.38Z" fill="white"/>
<path d="M224.735 236.88C228.142 236.88 230.903 234.12 230.903 230.715C230.903 227.309 228.142 224.549 224.735 224.549C221.328 224.549 218.567 227.309 218.567 230.715C218.567 234.12 221.328 236.88 224.735 236.88Z" fill="white"/>
<path d="M312.33 236.88C315.736 236.88 318.498 234.12 318.498 230.715C318.498 227.309 315.736 224.549 312.33 224.549C308.923 224.549 306.161 227.309 306.161 230.715C306.161 234.12 308.923 236.88 312.33 236.88Z" fill="white"/>
<path d="M401.268 237.46C404.674 237.46 407.436 234.7 407.436 231.295C407.436 227.889 404.674 225.129 401.268 225.129C397.861 225.129 395.099 227.889 395.099 231.295C395.099 234.7 397.861 237.46 401.268 237.46Z" fill="white"/>
<path d="M398.962 229.219H225.697V231.295H398.962V229.219Z" fill="white"/>
<path d="M400.733 203.213C400.152 203.177 399.574 203.091 399.008 202.953C395.255 202.189 391.894 200.117 389.526 197.108C388.015 195.297 386.841 193.229 386.06 191.003C385.954 190.698 385.831 190.576 385.496 190.591H379.694V184.898H384.793V182.105H379.678V176.352H385.496C385.621 176.369 385.748 176.338 385.85 176.264C385.953 176.19 386.023 176.079 386.045 175.955C387.374 171.945 390.008 168.496 393.527 166.157C395.59 164.769 397.979 163.943 400.459 163.76H402.856L404.779 164.081C407.384 164.614 409.808 165.807 411.818 167.545C413.802 169.239 415.422 171.315 416.582 173.65L416.674 173.894L411.528 176.352C411.269 175.894 411.04 175.451 410.765 175.024C409.435 172.691 407.319 170.906 404.795 169.987C402.594 169.196 400.171 169.3 398.046 170.277C395.448 171.49 393.369 173.59 392.183 176.199V176.382H405.115V182.105H390.595V184.898H405.085V190.652H392.107C392.674 191.875 393.421 193.006 394.321 194.01C395.652 195.549 397.403 196.668 399.359 197.23C400.793 197.629 402.303 197.677 403.76 197.369C405.216 197.061 406.577 196.406 407.726 195.459C409.265 194.274 410.508 192.748 411.36 191.003C411.36 190.911 411.467 190.82 411.543 190.698L416.765 193.185C416.216 194.101 415.727 194.986 415.238 195.826C414.047 197.614 412.536 199.166 410.78 200.404C408.558 201.945 405.964 202.861 403.268 203.06H402.871L400.733 203.213Z" fill="white"/>
<path d="M149.004 379.213C149.992 380.459 151.166 381.545 152.485 382.433C154.195 383.41 156.882 383.792 157.89 384.799C158.623 385.532 160.547 388.675 153.447 388.614C146.347 388.553 142.927 389.057 142.164 387.851C141.4 386.646 143.263 378.969 143.263 378.969C145.154 379.332 147.089 379.414 149.004 379.213Z" fill="#473F47"/>
<path d="M187.648 379.228C188.636 380.474 189.811 381.56 191.129 382.449C192.839 383.425 199.13 384.234 200.138 385.242C200.871 385.974 202.092 388.904 192.091 388.63C184.991 388.431 181.571 389.072 180.808 387.867C180.045 386.661 181.907 378.984 181.907 378.984C183.809 379.249 185.731 379.33 187.648 379.228Z" fill="#473F47"/>
<path d="M147.813 283.231C147.228 289.98 146.993 296.755 147.111 303.529C147.523 310.724 147.37 317.939 146.653 325.11C145.798 334.038 142.332 355.16 142.209 359.922C142.087 364.684 142.744 379.946 142.744 379.946L149.676 380.114C149.676 380.114 155.508 343.18 157.005 339.41C158.501 335.64 172.273 294.158 172.471 291.152C172.67 288.145 147.813 283.231 147.813 283.231Z" fill="#473F47"/>
<path d="M182.961 283.811C182.961 283.811 184.32 307.1 184.824 311.786C185.327 316.471 185.663 334.48 185.908 337.411C186.152 340.341 187.587 375.749 188.961 380.144H181.22C181.22 380.144 173.296 354.397 173.296 342.203C173.296 330.009 168.028 315.723 164.639 307.696C161.249 299.668 153.493 299.47 151.401 284.543C151.34 284.513 180.136 279.08 182.961 283.811Z" fill="#473F47"/>
<path d="M173.311 220.23C172.554 221.217 171.597 222.034 170.502 222.626C170.013 224.034 170.013 225.567 170.502 226.975C171.372 228.776 159.371 227.693 159.371 227.693C159.647 225.373 159.294 223.022 158.348 220.886C153.539 214.552 152.439 211.057 155.707 205.456C156.359 204.344 157.27 203.407 158.363 202.724C159.526 201.984 160.834 201.505 162.199 201.318C163.564 201.13 164.954 201.241 166.272 201.641C167.667 202.092 168.926 202.884 169.937 203.945C170.413 204.452 170.763 205.064 170.96 205.731C171.322 206.651 171.788 207.526 172.349 208.341C172.48 208.591 172.644 208.822 172.838 209.027C173.326 209.531 174.105 209.714 174.502 210.294C174.668 210.591 174.762 210.922 174.775 211.262C174.788 211.601 174.721 211.939 174.578 212.248C174.273 212.859 174.042 213.504 173.891 214.171C173.632 216.002 174.472 218.566 173.311 220.23Z" fill="#FCA89E"/>
<path d="M210.398 200.893C210.06 203.327 209.393 205.705 208.413 207.959C207.484 209.992 206.822 212.136 206.443 214.338C206.245 216.17 206.153 218.001 205.772 219.833C205.298 222.137 204.001 227.357 203.268 227.998C199.038 231.354 194.309 234.026 189.251 235.919C185.215 237.261 181.347 239.064 177.724 241.291C177.25 241.596 175.556 241.291 175.021 241.291H159.906C158.666 241.163 157.471 240.755 156.413 240.096C155.354 239.438 154.46 238.547 153.798 237.491C153.166 236.695 152.797 235.723 152.743 234.708C152.688 233.694 152.95 232.688 153.493 231.829C154.06 231.208 154.732 230.691 155.478 230.302C157.493 229.082 160.669 226.762 163.112 226.945L172.273 227.571C172.273 227.571 176.716 228.028 177.983 228.273C179.251 228.517 187.77 226.746 189.526 226.563C192.061 226.304 195.053 223.694 197.038 222.275C200.306 219.924 201.298 214.079 202.275 210.309C203.1 207.942 203.1 205.366 202.275 202.999C201.512 201.351 199.954 199.763 200.474 198.008C200.856 197.936 201.251 197.955 201.625 198.063C201.999 198.172 202.342 198.368 202.626 198.634C204.153 197.215 202.626 194.3 204.153 192.896C205.237 191.888 207.069 192.544 208.108 193.598C208.949 194.553 209.582 195.674 209.966 196.888C210.35 198.102 210.476 199.383 210.337 200.649C210.368 200.68 210.391 200.719 210.401 200.762C210.412 200.805 210.411 200.85 210.398 200.893Z" fill="#FCA89E"/>
<path d="M207.94 211.057C207.848 212.461 207.726 213.865 207.543 215.269C207.448 216.261 207.285 217.246 207.054 218.215C206.81 219.177 206.489 220.123 206.245 221.1C205.634 223.694 205.741 226.533 204.336 228.731C203.828 229.493 203.239 230.199 202.581 230.837C202.28 231.175 201.936 231.473 201.558 231.722C201.143 231.892 200.72 232.04 200.29 232.164C199.391 232.557 198.528 233.027 197.71 233.569L194.794 235.095C192.595 236.178 190.305 237.109 188.137 238.33C187.169 238.881 186.277 239.553 185.48 240.33C183.098 242.741 182.426 245.809 182.564 249.746C182.808 259.982 183.057 270.212 183.312 280.438C183.414 281.17 183.258 281.915 182.869 282.544C182.676 282.773 182.429 282.951 182.152 283.063C181.658 283.228 181.144 283.326 180.625 283.353C170.745 284.276 160.803 284.337 150.912 283.536C145.385 283.048 147.859 281.384 145.095 277.599C143.171 274.928 140.011 273.158 137.171 271.586C132.942 269.266 128.254 266.443 127.17 261.742C126.025 256.767 129.43 252.005 132.606 248.006L144.622 233.004C148.057 228.715 150.256 228.822 155.157 228.151C155.676 228.151 162.043 227.357 162.074 226.991C162.074 226.991 163.219 228.517 169.219 226.716C169.219 226.716 176.365 227.525 177.541 227.677C180.803 228.032 184.102 227.554 187.129 226.289C190.148 225.27 192.856 223.494 194.992 221.13C197.65 217.309 199.633 213.061 200.855 208.569C200.896 208.33 200.989 208.103 201.129 207.905C201.27 207.707 201.452 207.543 201.665 207.425C201.877 207.377 202.098 207.376 202.311 207.421C202.524 207.465 202.726 207.555 202.901 207.684L207.39 210.111L207.634 210.264C207.74 210.312 207.822 210.4 207.863 210.508C207.934 210.682 207.96 210.871 207.94 211.057Z" fill="#68E1FD"/>
<path d="M170.868 205.944C170.464 205.59 169.983 205.334 169.464 205.197C169.719 206.844 169.331 208.527 168.379 209.897C167.426 211.249 166.846 212.828 166.7 214.476C166.676 214.344 166.626 214.217 166.553 214.104C166.481 213.991 166.386 213.893 166.276 213.817C166.165 213.74 166.04 213.686 165.909 213.658C165.777 213.63 165.641 213.627 165.509 213.652C165.39 213.669 165.276 213.711 165.173 213.774C164.901 213.945 164.679 214.184 164.529 214.468C164.379 214.752 164.306 215.071 164.318 215.392C164.291 216.042 164.473 216.683 164.837 217.223C165.114 217.679 165.544 218.022 166.05 218.19C166.557 218.357 167.106 218.339 167.601 218.139C166.837 217.833 166.074 218.566 165.814 219.36C165.708 220.175 165.708 221.001 165.814 221.817C165.84 222.944 165.532 224.054 164.929 225.007L164.089 224.106C163.862 224.477 163.721 224.894 163.677 225.327C163.555 225.739 163.158 226.182 162.745 226.044C162.578 226.044 162.44 225.831 162.257 225.831C162.074 225.831 161.845 226.212 161.661 226.472C161.234 227.097 160.135 226.884 159.677 226.304C159.248 225.664 158.928 224.957 158.73 224.213C158.44 223.511 157.86 222.794 157.081 222.809C156.885 222.854 156.681 222.854 156.485 222.809C156.381 222.758 156.289 222.685 156.215 222.596C156.141 222.506 156.088 222.402 156.058 222.29C155.13 220.361 154.058 218.504 152.852 216.735C151.791 215.345 150.856 213.864 150.057 212.309C149.466 211.02 149.137 209.626 149.089 208.209C149.042 206.791 149.278 205.379 149.782 204.053C150.287 202.728 151.05 201.516 152.028 200.489C153.006 199.462 154.179 198.639 155.478 198.069C156.247 197.715 157.057 197.458 157.89 197.306C159.417 197.031 160.944 197.062 162.471 196.833C163.478 196.68 164.746 195.933 165.753 196.07C167.967 196.375 169.754 199.916 170.334 201.763C170.545 202.439 170.688 203.134 170.761 203.838C170.744 204.542 170.779 205.246 170.868 205.944Z" fill="#473F47"/>
<path opacity="0.14" d="M146.607 244.42C142.774 247.274 140.148 251.44 137.644 255.515C136.621 257.014 135.809 258.648 135.232 260.368C134.945 261.228 134.831 262.136 134.896 263.039C134.962 263.943 135.206 264.825 135.614 265.634C135.704 265.842 135.866 266.01 136.072 266.107C136.321 266.156 136.58 266.118 136.805 266L139.125 265.039L145.431 276.378C145.813 271.464 145.798 266.427 146.042 261.498C146.179 258.613 146.301 255.729 146.393 252.844C146.439 251.761 145.874 245.015 146.607 244.42Z" fill="#020202"/>
<path opacity="0.14" d="M207.94 211.057C207.848 212.461 207.726 213.865 207.543 215.269C207.448 216.261 207.285 217.246 207.054 218.215C206.81 219.177 206.489 220.123 206.245 221.1C205.634 223.694 205.741 226.533 204.336 228.73C203.828 229.493 203.239 230.199 202.581 230.837C202.28 231.175 201.936 231.473 201.558 231.722C201.143 231.892 200.72 232.04 200.29 232.164C199.391 232.557 198.528 233.026 197.71 233.569L194.794 235.095C192.595 236.178 190.305 237.109 188.137 238.33C187.169 238.881 186.277 239.553 185.48 240.33C183.098 242.741 182.426 245.809 182.564 249.746C182.808 259.982 183.057 270.212 183.312 280.438C183.414 281.17 183.258 281.915 182.869 282.544C182.676 282.773 182.429 282.951 182.152 283.063C180.336 283.246 178.508 283.292 176.685 283.2C180.442 277.324 179.739 269.739 178.945 262.81C178.149 257.424 178.108 251.954 178.823 246.556C179.58 241.096 182.399 236.132 186.702 232.683C190.58 229.845 195.695 228.73 199.023 225.266C200.888 223.03 202.321 220.469 203.252 217.711C204.001 215.895 205.146 210.828 207.573 210.325C207.679 210.373 207.761 210.461 207.802 210.569C207.886 210.718 207.933 210.886 207.94 211.057Z" fill="#020202"/>
</g>
<defs>
<linearGradient id="paint0_linear" x1="289.748" y1="97.6611" x2="274.675" y2="642.634" gradientUnits="userSpaceOnUse">
<stop stop-color="white" stop-opacity="0"/>
<stop offset="0.54" stop-color="white"/>
</linearGradient>
<linearGradient id="paint1_linear" x1="-5.77143" y1="75.3787" x2="418.982" y2="405.072" gradientUnits="userSpaceOnUse">
<stop offset="0.01"/>
<stop offset="0.08" stop-opacity="0.69"/>
<stop offset="0.21" stop-opacity="0.32"/>
<stop offset="1" stop-opacity="0"/>
</linearGradient>
<clipPath id="clip0">
<rect width="590" height="444" fill="white"/>
</clipPath>
</defs>
</svg>
