<svg width="546" height="477" viewBox="0 0 546 477" fill="none" xmlns="http://www.w3.org/2000/svg">
<rect x="1" y="348" width="545" height="129" rx="6" fill="#FD695A"/>
<path d="M499.59 63.8836V377.36C499.59 382.616 497.505 387.656 493.794 391.373C490.082 395.089 485.048 397.177 479.799 397.177H64.2009C58.952 397.177 53.918 395.089 50.2065 391.373C46.4949 387.656 44.4098 382.616 44.4098 377.36V69.7453C44.4098 64.4894 46.4949 59.4489 50.2065 55.7325C53.918 52.016 58.952 49.9282 64.2009 49.9282H485.653C489.349 49.9282 492.894 51.3985 495.508 54.0156C498.122 56.6328 499.59 60.1824 499.59 63.8836Z" fill="white"/>
<path opacity="0.33" d="M316.338 117.939H117.672V240.198H316.338V117.939Z" fill="#D7D9E1"/>
<path opacity="0.33" d="M316.338 251.921H117.672V374.18H316.338V251.921Z" fill="#D7D9E1"/>
<path d="M499.59 64.1887V64.7026H44.4098V64.1887C44.4098 58.9329 46.4949 53.8924 50.2065 50.1759C53.918 46.4595 58.952 44.3716 64.2009 44.3716H479.799C482.399 44.3695 484.973 44.8807 487.375 45.8758C489.777 46.871 491.96 48.3306 493.798 50.1712C495.636 52.0118 497.094 54.1973 498.088 56.6026C499.082 59.0078 499.592 61.5857 499.59 64.1887Z" fill="#FA251B"/>
<path d="M105.82 64.7026V397.129H64.2009C58.952 397.129 53.918 395.041 50.2065 391.324C46.4949 387.608 44.4098 382.567 44.4098 377.312V64.7026H105.82Z" fill="#D7D9E1"/>
<path d="M96.3415 148.419H64.2811V151.599H96.3415V148.419Z" fill="white"/>
<path d="M96.3576 139.025H56.8394V143.056H96.3576V139.025Z" fill="white"/>
<path d="M96.3415 185.998H64.2811V189.178H96.3415V185.998Z" fill="white"/>
<path d="M96.3576 176.587H56.8394V180.618H96.3576V176.587Z" fill="white"/>
<path d="M96.3415 223.561H64.2811V226.74H96.3415V223.561Z" fill="white"/>
<path d="M96.3576 214.166H56.8394V218.197H96.3576V214.166Z" fill="white"/>
<path d="M96.3415 261.123H64.2811V264.303H96.3415V261.123Z" fill="white"/>
<path d="M96.3576 251.729H56.8394V255.759H96.3576V251.729Z" fill="white"/>
<path d="M526.47 101.751V168.124C526.471 172.731 524.701 177.161 521.526 180.495C518.352 183.829 514.017 185.811 509.422 186.03C509.139 186.046 508.855 186.046 508.572 186.03H398.95L389.52 207.967L379.576 186.03H228.593C224.714 186.027 220.94 184.764 217.84 182.43C214.74 180.096 212.48 176.817 211.4 173.086C210.952 171.471 210.736 169.8 210.758 168.124V101.751C210.758 97.0077 212.635 92.4571 215.977 89.0954C219.319 85.7336 223.855 83.8343 228.593 83.8131H508.572C510.923 83.8131 513.252 84.2772 515.425 85.1789C517.597 86.0806 519.571 87.4021 521.234 89.0681C522.896 90.734 524.214 92.7116 525.112 94.8878C526.011 97.0641 526.472 99.3964 526.47 101.751Z" fill="#FA251B"/>
<path opacity="0.33" d="M526.47 108.464V168.124C526.471 172.731 524.701 177.161 521.526 180.495C518.352 183.829 514.017 185.811 509.422 186.03C509.138 186.046 508.855 186.046 508.572 186.03H398.95L389.52 207.967L379.576 186.03H228.593C224.714 186.027 220.94 184.764 217.84 182.43C214.74 180.096 212.48 176.817 211.4 173.086C210.952 171.471 210.736 169.8 210.758 168.124V108.464H526.47Z" fill="white"/>
<path d="M65.5963 59.0337C68.0941 59.0337 70.119 57.0062 70.119 54.505C70.119 52.0039 68.0941 49.9763 65.5963 49.9763C63.0984 49.9763 61.0735 52.0039 61.0735 54.505C61.0735 57.0062 63.0984 59.0337 65.5963 59.0337Z" fill="white"/>
<path d="M81.1052 59.0337C83.6031 59.0337 85.628 57.0062 85.628 54.505C85.628 52.0039 83.6031 49.9763 81.1052 49.9763C78.6074 49.9763 76.5825 52.0039 76.5825 54.505C76.5825 57.0062 78.6074 59.0337 81.1052 59.0337Z" fill="white"/>
<path d="M96.6142 59.0337C99.112 59.0337 101.137 57.0062 101.137 54.505C101.137 52.0039 99.112 49.9763 96.6142 49.9763C94.1163 49.9763 92.0914 52.0039 92.0914 54.505C92.0914 57.0062 94.1163 59.0337 96.6142 59.0337Z" fill="white"/>
<path d="M425.879 377.52C425.879 394.736 419.049 411.247 406.891 423.42C394.734 435.593 378.245 442.432 361.052 442.432C343.859 442.432 327.37 435.593 315.213 423.42C303.056 411.247 296.226 394.736 296.226 377.52C296.226 375.85 296.29 374.196 296.418 372.558C297.708 355.828 305.419 340.249 317.931 329.088C330.444 317.926 346.787 312.05 363.532 312.692C380.277 313.334 396.124 320.444 407.748 332.53C419.371 344.617 425.869 360.741 425.879 377.52Z" fill="#FA251B"/>
<path opacity="0.14" d="M333.803 407.005C331.654 416.384 334.284 426.389 332.36 435.735C317.384 428.318 305.835 415.414 300.107 399.698C299.798 396.489 299.879 393.253 300.348 390.063C300.781 386.61 301.422 383.029 300.444 379.688C299.513 377.116 298.152 374.721 296.418 372.606C297.138 363.116 299.937 353.9 304.616 345.615C309.295 337.33 315.739 330.179 323.491 324.67C323.57 325.105 323.57 325.551 323.491 325.986L320.78 338.352C321.326 342.015 321.326 345.738 320.78 349.401C320.483 351.228 319.791 352.968 318.752 354.499C317.713 356.031 316.353 357.316 314.766 358.265C313.569 358.76 312.406 359.334 311.286 359.984C310.209 360.877 309.311 361.967 308.639 363.196C306.849 365.699 305.513 368.498 304.694 371.466C304.298 372.951 304.278 374.512 304.636 376.007C304.995 377.501 305.72 378.883 306.747 380.026L324.822 376.509C326.714 376.139 329.008 375.882 330.307 377.312C331.911 379.014 330.884 381.728 331.221 384.024C331.654 386.947 334.252 389.051 335.455 391.765C337.54 396.47 334.99 401.882 333.803 407.005Z" fill="#020202"/>
<path opacity="0.4" d="M309.81 344.182C310.648 345.998 311.983 347.541 313.659 348.63C321.24 354.325 330.393 357.533 339.866 357.816C336.802 358.571 333.563 359.422 331.381 361.718C329.2 364.015 328.735 368.142 331.269 370.085C332.161 370.682 333.175 371.071 334.236 371.225C339.064 372.175 344.059 371.769 348.671 370.053C351.461 369.009 354.204 367.467 357.187 367.5C359.576 367.698 361.903 368.363 364.035 369.459C367.243 370.776 370.595 371.964 373.931 371.29C377.267 370.615 380.346 367.403 379.592 364.063C379.416 363.276 379.079 362.457 379.464 361.734C379.788 361.301 380.244 360.985 380.763 360.835L411.444 347.169C413.385 346.285 415.614 345.049 415.823 342.929C416.031 340.809 413.882 338.994 411.893 337.967C401.324 332.442 388.991 331.736 377.074 331.158L355.92 330.114C345.688 329.616 335.359 329.118 325.143 330.322C321.598 330.74 315.343 330.788 312.633 333.438C310.275 335.686 308.719 341.275 309.81 344.182Z" fill="#020202"/>
<path opacity="0.14" d="M425.879 377.52C425.889 387.338 423.671 397.029 419.392 405.862C415.114 414.695 408.886 422.439 401.18 428.509C400.289 427.916 399.526 427.152 398.934 426.26C396.994 423.321 397.635 418.68 400.763 417.026C399.672 417.604 395.39 416.191 394.107 415.998L387.435 414.955C384.227 414.457 378.678 414.665 376.802 411.454C376.585 411.006 376.333 410.576 376.048 410.169C375.65 409.771 375.182 409.45 374.669 409.221C372.664 408.242 370.306 407.134 369.857 404.95C369.52 403.344 370.322 401.513 369.504 400.132C369.248 399.682 368.847 399.329 368.59 398.895C368.308 398.237 368.201 397.517 368.279 396.805C368.358 396.092 368.62 395.413 369.039 394.832C371.846 389.902 377.684 387.525 383.265 386.578C388.846 385.63 394.636 385.759 400.089 384.185C403.521 383.189 406.777 381.519 410.322 380.973C412.278 380.7 414.716 380.507 415.438 378.661C415.839 377.617 415.438 376.412 415.855 375.352C416.015 374.903 416.32 374.517 416.48 374.068C416.604 373.69 416.643 373.289 416.592 372.895C416.542 372.501 416.404 372.122 416.189 371.788C415.973 371.454 415.686 371.173 415.348 370.964C415.01 370.755 414.63 370.625 414.235 370.583C414.684 369.362 415.069 367.805 414.107 366.937C413.772 366.692 413.383 366.53 412.973 366.466C412.562 366.401 412.143 366.437 411.749 366.568C409.423 367.162 407.739 369.121 405.783 370.503C399.367 375.112 390.45 373.474 385.029 368.062C384.151 367.29 383.525 366.271 383.233 365.139C383.152 364.174 383.372 363.207 383.863 362.373C384.355 361.538 385.093 360.878 385.976 360.482C387.747 359.716 389.66 359.339 391.589 359.374L389.424 345.241C378.646 348.132 374.268 337.854 372.728 329.311C371.188 320.767 377.251 317.716 385.061 317.154C397.117 321.969 407.453 330.297 414.73 341.06C422.007 351.822 425.891 364.523 425.879 377.52Z" fill="#020202"/>
<path d="M387.498 231.971L385.995 232.09C385.059 232.164 384.36 232.984 384.434 233.921L385.22 243.879C385.294 244.816 386.113 245.516 387.049 245.441L388.552 245.322C389.488 245.248 390.187 244.429 390.113 243.491L389.327 233.534C389.253 232.596 388.434 231.897 387.498 231.971Z" fill="#FA251B"/>
<path d="M376.962 227.993L377.652 231.831C377.876 233.068 378.774 233.887 379.737 233.726C383.457 233.084 392.567 231.815 399.127 233.485C402.691 234.394 406.177 235.586 409.552 237.05C410.883 237.645 412.214 236.151 411.99 234.32L409.632 213.893C409.407 212.094 407.836 211.195 406.697 212.287C401.998 216.559 391.108 225.054 378.903 225.006C377.555 224.958 376.689 226.435 376.962 227.993Z" fill="#FA251B"/>
<path d="M410.566 237.162C413.956 236.893 416.251 230.92 415.69 223.82C415.13 216.72 411.926 211.182 408.536 211.451C405.145 211.719 402.85 217.692 403.411 224.792C403.972 231.892 407.175 237.43 410.566 237.162Z" fill="#FA251B"/>
<path d="M410.566 237.162C413.956 236.893 416.251 230.92 415.69 223.82C415.13 216.72 411.926 211.182 408.536 211.451C405.145 211.719 402.85 217.692 403.411 224.792C403.972 231.892 407.175 237.43 410.566 237.162Z" fill="url(#paint0_linear)"/>
<path d="M337.155 251.841C329.585 252.917 311.494 295.49 316.883 305.238C322.272 314.986 352.023 326.356 352.023 326.356L350.419 309.574C350.419 309.574 330.066 300.902 331.686 295.49C333.306 290.078 345.014 269.875 345.014 269.875L337.155 251.841Z" fill="#FA251B"/>
<path d="M385.575 250.685C385.575 249.625 392.615 252.596 392.936 252.772C396.978 255.008 400.811 257.604 404.387 260.529C407.595 263.098 410.947 265.604 414.01 268.446C416.785 271.08 420.538 274.324 419.864 278.596C419.335 281.807 415.855 283.927 412.583 283.943C409.303 283.691 406.145 282.584 403.425 280.731C397.715 277.439 392.311 273.89 386.761 270.277L385.575 250.685Z" fill="#FA251B"/>
<path d="M341.822 250.604H383.393C384.848 250.574 386.294 250.837 387.645 251.378C388.996 251.919 390.225 252.727 391.257 253.754C392.29 254.78 393.106 256.004 393.656 257.353C394.206 258.702 394.479 260.148 394.46 261.605C394.46 261.605 386.537 294.012 386.441 304.885C386.441 310.842 388.317 328.636 388.317 328.636H336.995C336.995 328.636 339.369 310.04 339.32 303.792C339.224 293.193 330.836 261.605 330.836 261.605C330.817 260.155 331.088 258.716 331.633 257.372C332.178 256.029 332.987 254.808 334.011 253.783C335.035 252.758 336.254 251.948 337.595 251.402C338.937 250.856 340.374 250.585 341.822 250.604Z" fill="#FA251B"/>
<path d="M392.247 232.217C391.54 231.226 390.59 230.435 389.488 229.92C388.441 229.611 387.327 229.611 386.28 229.92C384.86 230.253 383.531 230.894 382.386 231.799C381.242 232.704 380.31 233.85 379.656 235.155C379.38 235.692 379.232 236.286 379.223 236.89C379.276 237.491 379.433 238.078 379.689 238.624C380.683 241.145 381.998 243.972 384.612 244.711C385.996 244.885 387.388 244.987 388.782 245.016C389.696 245.16 390.562 245.514 391.477 245.674C393.786 246.092 398.421 244.518 398.598 241.611C398.678 240.182 396.849 238.271 396.08 237.163C394.829 235.444 393.594 233.806 392.247 232.217Z" fill="#FCA89E"/>
<path d="M369.007 256.691C368.835 257.909 368.205 259.015 367.244 259.782C366.284 260.55 365.067 260.92 363.843 260.818C358.743 260.577 358.374 256.691 358.374 256.691V236.424H369.007V256.691Z" fill="#FCA89E"/>
<path d="M358.31 246.445C358.31 246.445 364.965 256.835 368.943 251.841V243.715L358.31 246.445Z" fill="url(#paint1_linear)"/>
<path d="M353.899 241.274C356.561 249.544 369.793 249.785 374.236 243.217C376.611 239.223 377.358 234.467 376.321 229.936C375.615 225.477 374.253 221.147 372.279 217.089C370.916 214.535 369.536 212.271 366.441 211.885C362.909 211.656 359.385 212.448 356.289 214.166C353.356 215.749 351.06 218.3 349.791 221.385C348.523 224.47 348.359 227.9 349.328 231.092C349.86 232.69 350.531 234.237 351.333 235.717C352.33 237.5 353.188 239.358 353.899 241.274Z" fill="#FCA89E"/>
<path d="M397.443 291.491H327.805V333.069H397.443V291.491Z" fill="#FA251B"/>
<g opacity="0.1">
<path opacity="0.1" d="M397.443 291.491H327.805V333.069H397.443V291.491Z" fill="#020202"/>
</g>
<path d="M357.957 355.246C356.504 356.393 354.88 357.303 353.145 357.944C349.408 359.55 342.031 362.441 343.137 365.653C344.629 369.989 349.825 369.668 353.274 368.64C358.658 366.792 363.784 364.26 368.526 361.108L357.957 355.246Z" fill="#473F47"/>
<path d="M366.89 343.941C379.528 334.707 386.136 327.881 400.33 319.242C403.714 317.186 406.023 316.576 411.877 318.872C416.865 320.831 416.336 329.423 413.609 333.004C405.446 343.748 373.979 358.587 367.612 360.835C364.885 361.799 355.182 353.624 359.112 349.722C361.576 347.627 364.174 345.696 366.89 343.941Z" fill="#473F47"/>
<path d="M361.052 361.734C363.014 364.262 365.252 366.562 367.724 368.592C372.006 371.916 374.973 373.008 378.454 371.386C383.49 369.041 378.855 364.079 374.941 360.144C371.956 357.021 368.613 354.262 364.982 351.922L361.052 361.734Z" fill="#473F47"/>
<path d="M361.694 349.594L367.099 354.074C368.213 354.978 369.168 356.064 369.921 357.286C371.669 360.498 365.607 367.259 361.662 363.324C357.716 359.39 354.188 355.182 354.188 355.182L361.694 349.594Z" fill="#FCA89E"/>
<path d="M345.623 356.643C330.932 349.24 321.919 346.574 312.472 333.261C310.067 329.857 309.104 324.252 310.035 321.474C311.189 318.069 316.161 316.014 322.031 317.411C326.939 318.599 359.946 344.487 365.11 349.369C367.323 351.472 360.555 361.991 355.006 360.176C351.778 359.284 348.638 358.102 345.623 356.643Z" fill="#473F47"/>
<path d="M375.839 216.302C375.27 217.676 374.43 218.921 373.369 219.963C371.213 222.05 368.449 223.394 365.479 223.801C361.148 224.492 356.754 223.801 352.391 223.368C352.294 224.073 351.999 224.736 351.543 225.281C351.086 225.826 350.485 226.232 349.809 226.451C350.468 229.503 351.347 232.504 352.44 235.428C353.514 238.287 355.054 240.953 356.209 243.747C352.616 241.258 349.793 237.018 347.227 233.582C345.836 231.948 344.72 230.099 343.923 228.105C343.526 227.107 343.372 226.028 343.475 224.958C343.578 223.888 343.935 222.858 344.517 221.955C345.116 221.349 345.605 220.642 345.96 219.867C346.081 219.192 346.081 218.502 345.96 217.827C345.905 216.225 346.211 214.631 346.855 213.163C347.499 211.695 348.465 210.391 349.681 209.348C352.14 207.286 355.028 205.8 358.133 204.996C360.791 204.06 363.629 203.752 366.425 204.097C370.467 204.787 375.31 209.252 376.16 213.283C376.342 214.299 376.231 215.346 375.839 216.302Z" fill="#473F47"/>
<path d="M351.044 235.846C350.577 235.929 350.132 236.104 349.732 236.36C349.333 236.616 348.989 236.949 348.719 237.339C348.57 237.645 348.483 237.977 348.464 238.316C348.445 238.655 348.493 238.995 348.607 239.315C348.834 239.96 349.177 240.558 349.617 241.081C349.839 241.4 350.116 241.678 350.435 241.9C350.974 242.202 351.582 242.357 352.199 242.35C352.68 242.35 353.161 242.35 353.642 242.35C353.889 242.335 354.129 242.27 354.348 242.157C354.574 241.987 354.742 241.752 354.829 241.483C355.159 240.476 355.159 239.39 354.829 238.383C354.606 237.434 354.148 236.556 353.498 235.83C352.873 235.236 351.894 235.573 351.044 235.846Z" fill="#FCA89E"/>
<path d="M404.692 276.01C405.619 278.215 407.034 280.181 408.83 281.759C410.1 282.709 411.623 283.26 413.207 283.344C414.79 283.427 416.362 283.038 417.725 282.227C419.088 281.416 420.18 280.218 420.863 278.786C421.547 277.354 421.791 275.751 421.564 274.179C421.034 271.867 419.999 269.7 418.533 267.836C412.246 258.522 405.783 249.314 399.143 240.214C397.379 241.226 391.124 243.522 390.691 245.53C390.258 247.537 394.027 253.559 394.957 255.615C396.561 259.084 398.165 262.552 399.768 265.989C401.372 269.426 403.666 272.606 404.692 276.01Z" fill="#FA251B"/>
<path d="M386.756 240.757L384.717 241.436C383.817 241.736 383.331 242.709 383.63 243.609L384.308 245.651C384.607 246.552 385.579 247.039 386.478 246.739L388.518 246.06C389.417 245.76 389.903 244.788 389.604 243.887L388.926 241.845C388.627 240.945 387.655 240.458 386.756 240.757Z" fill="#FA251B"/>
<path d="M221.76 94.1392L229.298 101.671" stroke="white" stroke-width="2" stroke-miterlimit="10" stroke-linecap="round"/>
<path d="M229.747 94.1392L222.209 101.671" stroke="white" stroke-width="2" stroke-miterlimit="10" stroke-linecap="round"/>
<path d="M411.813 131.059H244.487C242.29 131.059 240.509 132.842 240.509 135.042C240.509 137.242 242.29 139.025 244.487 139.025H411.813C414.01 139.025 415.791 137.242 415.791 135.042C415.791 132.842 414.01 131.059 411.813 131.059Z" fill="white"/>
<path d="M411.813 150.925H244.487C242.29 150.925 240.509 152.708 240.509 154.907C240.509 157.107 242.29 158.89 244.487 158.89H411.813C414.01 158.89 415.791 157.107 415.791 154.907C415.791 152.708 414.01 150.925 411.813 150.925Z" fill="white"/>
<defs>
<linearGradient id="paint0_linear" x1="394.767" y1="217.99" x2="484.746" y2="256.254" gradientUnits="userSpaceOnUse">
<stop offset="0.01"/>
<stop offset="0.08" stop-opacity="0.69"/>
<stop offset="0.21" stop-opacity="0.32"/>
<stop offset="1" stop-opacity="0"/>
</linearGradient>
<linearGradient id="paint1_linear" x1="3142.23" y1="1781.71" x2="3110.34" y2="2084.15" gradientUnits="userSpaceOnUse">
<stop offset="0.01"/>
<stop offset="0.08" stop-opacity="0.69"/>
<stop offset="0.21" stop-opacity="0.32"/>
<stop offset="1" stop-opacity="0"/>
</linearGradient>
</defs>
</svg>
