<svg width="60" height="60" viewBox="0 0 60 60" fill="none" xmlns="http://www.w3.org/2000/svg">
<circle cx="30" cy="30" r="30" fill="white"/>
<path d="M42.5 22.15L36.75 17.325L35.1375 19.2375L40.8875 24.0625L42.5 22.15ZM24.85 19.2375L23.25 17.325L17.5 22.1375L19.1125 24.05L24.85 19.2375ZM30 20C23.7875 20 18.75 25.0375 18.75 31.25C18.75 37.4625 23.775 42.5 30 42.5C36.2125 42.5 41.25 37.4625 41.25 31.25C41.25 25.0375 36.2125 20 30 20ZM30 40C25.1625 40 21.25 36.0875 21.25 31.25C21.25 26.4125 25.1625 22.5 30 22.5C34.8375 22.5 38.75 26.4125 38.75 31.25C38.75 36.0875 34.8375 40 30 40ZM28.175 33.1625L25.5125 30.5L24.1875 31.825L28.1625 35.8L35.6625 28.3L34.3375 26.975L28.175 33.1625Z" fill="#FD695A"/>
</svg>
