<svg width="60" height="60" viewBox="0 0 60 60" fill="none" xmlns="http://www.w3.org/2000/svg">
<circle cx="30" cy="30" r="30" fill="white"/>
<path d="M35.625 18.75C33.45 18.75 31.3625 19.7625 30 21.3625C28.6375 19.7625 26.55 18.75 24.375 18.75C20.525 18.75 17.5 21.775 17.5 25.625C17.5 30.35 21.75 34.2 28.1875 40.05L30 41.6875L31.8125 40.0375C38.25 34.2 42.5 30.35 42.5 25.625C42.5 21.775 39.475 18.75 35.625 18.75ZM30.125 38.1875L30 38.3125L29.875 38.1875C23.925 32.8 20 29.2375 20 25.625C20 23.125 21.875 21.25 24.375 21.25C26.3 21.25 28.175 22.4875 28.8375 24.2H31.175C31.825 22.4875 33.7 21.25 35.625 21.25C38.125 21.25 40 23.125 40 25.625C40 29.2375 36.075 32.8 30.125 38.1875Z" fill="#FD695A"/>
</svg>
