<svg width="60" height="60" viewBox="0 0 60 60" fill="none" xmlns="http://www.w3.org/2000/svg">
<circle cx="30" cy="30" r="30" fill="white"/>
<path d="M38.75 25L33.75 30H37.5C37.5 34.1375 34.1375 37.5 30 37.5C28.7375 37.5 27.5375 37.1875 26.5 36.625L24.675 38.45C26.2125 39.425 28.0375 40 30 40C35.525 40 40 35.525 40 30H43.75L38.75 25ZM22.5 30C22.5 25.8625 25.8625 22.5 30 22.5C31.2625 22.5 32.4625 22.8125 33.5 23.375L35.325 21.55C33.7875 20.575 31.9625 20 30 20C24.475 20 20 24.475 20 30H16.25L21.25 35L26.25 30H22.5Z" fill="#FD695A"/>
</svg>
