<svg width="24" height="24" viewBox="0 0 24 25" fill="" xmlns="http://www.w3.org/2000/svg">
<path d="M15.5 14.475H14.71L14.43 14.2084C15.41 13.0826 16 11.6211 16 10.0313C16 6.48613 13.09 3.6125 9.5 3.6125C5.91 3.6125 3 6.48613 3 10.0313C3 13.5764 5.91 16.45 9.5 16.45C11.11 16.45 12.59 15.8674 13.73 14.8996L14 15.1761V15.9563L19 20.8839L20.49 19.4125L15.5 14.475ZM9.5 14.475C7.01 14.475 5 12.4901 5 10.0313C5 7.57238 7.01 5.5875 9.5 5.5875C11.99 5.5875 14 7.57238 14 10.0313C14 12.4901 11.99 14.475 9.5 14.475Z" fill="black"/>
</svg>
