<svg width="160" height="35" viewBox="0 0 160 35" fill="none" xmlns="http://www.w3.org/2000/svg">
<path d="M9.75977 17.6309H5.55859V27H0.285156V1.40625H9.79492C12.8184 1.40625 15.1504 2.08008 16.791 3.42773C18.4316 4.77539 19.252 6.67969 19.252 9.14062C19.252 10.8867 18.8711 12.3457 18.1094 13.5176C17.3594 14.6777 16.2168 15.6035 14.6816 16.2949L20.2188 26.7539V27H14.5586L9.75977 17.6309ZM5.55859 13.3594H9.8125C11.1367 13.3594 12.1621 13.0254 12.8887 12.3574C13.6152 11.6777 13.9785 10.7461 13.9785 9.5625C13.9785 8.35547 13.6328 7.40625 12.9414 6.71484C12.2617 6.02344 11.2129 5.67773 9.79492 5.67773H5.55859V13.3594ZM33.9648 27C33.7305 26.543 33.5605 25.9746 33.4551 25.2949C32.2246 26.666 30.625 27.3516 28.6562 27.3516C26.793 27.3516 25.2461 26.8125 24.0156 25.7344C22.7969 24.6562 22.1875 23.2969 22.1875 21.6562C22.1875 19.6406 22.9316 18.0938 24.4199 17.0156C25.9199 15.9375 28.082 15.3926 30.9062 15.3809H33.2441V14.291C33.2441 13.4121 33.0156 12.709 32.5586 12.1816C32.1133 11.6543 31.4043 11.3906 30.4316 11.3906C29.5762 11.3906 28.9023 11.5957 28.4102 12.0059C27.9297 12.416 27.6895 12.9785 27.6895 13.6934H22.6094C22.6094 12.5918 22.9492 11.5723 23.6289 10.6348C24.3086 9.69727 25.2695 8.96484 26.5117 8.4375C27.7539 7.89844 29.1484 7.62891 30.6953 7.62891C33.0391 7.62891 34.8965 8.2207 36.2676 9.4043C37.6504 10.5762 38.3418 12.2285 38.3418 14.3613V22.6055C38.3535 24.4102 38.6055 25.7754 39.0977 26.7012V27H33.9648ZM29.7637 23.4668C30.5137 23.4668 31.2051 23.3027 31.8379 22.9746C32.4707 22.6348 32.9395 22.1836 33.2441 21.6211V18.3516H31.3457C28.8027 18.3516 27.4492 19.2305 27.2852 20.9883L27.2676 21.2871C27.2676 21.9199 27.4902 22.4414 27.9355 22.8516C28.3809 23.2617 28.9902 23.4668 29.7637 23.4668ZM46.9199 7.98047L47.0781 10.1777C48.4375 8.47852 50.2598 7.62891 52.5449 7.62891C54.5605 7.62891 56.0605 8.2207 57.0449 9.4043C58.0293 10.5879 58.5332 12.3574 58.5566 14.7129V27H53.4766V14.8359C53.4766 13.7578 53.2422 12.9785 52.7734 12.498C52.3047 12.0059 51.5254 11.7598 50.4355 11.7598C49.0059 11.7598 47.9336 12.3691 47.2188 13.5879V27H42.1387V7.98047H46.9199ZM61.6855 17.3496C61.6855 14.4316 62.377 12.082 63.7598 10.3008C65.1543 8.51953 67.0293 7.62891 69.3848 7.62891C71.4707 7.62891 73.0938 8.34375 74.2539 9.77344L74.4648 7.98047H79.0703V26.3672C79.0703 28.0312 78.6895 29.4785 77.9277 30.709C77.1777 31.9395 76.1172 32.877 74.7461 33.5215C73.375 34.166 71.7695 34.4883 69.9297 34.4883C68.5352 34.4883 67.1758 34.207 65.8516 33.6445C64.5273 33.0938 63.5254 32.3789 62.8457 31.5L65.0957 28.4062C66.3613 29.8242 67.8965 30.5332 69.7012 30.5332C71.0488 30.5332 72.0977 30.1699 72.8477 29.4434C73.5977 28.7285 73.9727 27.709 73.9727 26.3848V25.3652C72.8008 26.6895 71.2598 27.3516 69.3496 27.3516C67.0645 27.3516 65.2129 26.4609 63.7949 24.6797C62.3887 22.8867 61.6855 20.5137 61.6855 17.5605V17.3496ZM66.7656 17.7188C66.7656 19.4414 67.1113 20.7949 67.8027 21.7793C68.4941 22.752 69.4434 23.2383 70.6504 23.2383C72.1973 23.2383 73.3047 22.6582 73.9727 21.498V13.5C73.293 12.3398 72.1973 11.7598 70.6855 11.7598C69.4668 11.7598 68.5059 12.2578 67.8027 13.2539C67.1113 14.25 66.7656 15.7383 66.7656 17.7188ZM82.1992 17.3496C82.1992 14.3848 82.8613 12.0234 84.1855 10.2656C85.5215 8.50781 87.3438 7.62891 89.6523 7.62891C91.5039 7.62891 93.0332 8.32031 94.2402 9.70312V0H99.3379V27H94.75L94.5039 24.9785C93.2383 26.5605 91.6094 27.3516 89.6172 27.3516C87.3789 27.3516 85.5801 26.4727 84.2207 24.7148C82.873 22.9453 82.1992 20.4902 82.1992 17.3496ZM87.2793 17.7188C87.2793 19.5 87.5898 20.8652 88.2109 21.8145C88.832 22.7637 89.7344 23.2383 90.918 23.2383C92.4883 23.2383 93.5957 22.5762 94.2402 21.252V13.7461C93.6074 12.4219 92.5117 11.7598 90.9531 11.7598C88.5039 11.7598 87.2793 13.7461 87.2793 17.7188ZM114.297 27C114.062 26.543 113.893 25.9746 113.787 25.2949C112.557 26.666 110.957 27.3516 108.988 27.3516C107.125 27.3516 105.578 26.8125 104.348 25.7344C103.129 24.6562 102.52 23.2969 102.52 21.6562C102.52 19.6406 103.264 18.0938 104.752 17.0156C106.252 15.9375 108.414 15.3926 111.238 15.3809H113.576V14.291C113.576 13.4121 113.348 12.709 112.891 12.1816C112.445 11.6543 111.736 11.3906 110.764 11.3906C109.908 11.3906 109.234 11.5957 108.742 12.0059C108.262 12.416 108.021 12.9785 108.021 13.6934H102.941C102.941 12.5918 103.281 11.5723 103.961 10.6348C104.641 9.69727 105.602 8.96484 106.844 8.4375C108.086 7.89844 109.48 7.62891 111.027 7.62891C113.371 7.62891 115.229 8.2207 116.6 9.4043C117.982 10.5762 118.674 12.2285 118.674 14.3613V22.6055C118.686 24.4102 118.938 25.7754 119.43 26.7012V27H114.297ZM110.096 23.4668C110.846 23.4668 111.537 23.3027 112.17 22.9746C112.803 22.6348 113.271 22.1836 113.576 21.6211V18.3516H111.678C109.135 18.3516 107.781 19.2305 107.617 20.9883L107.6 21.2871C107.6 21.9199 107.822 22.4414 108.268 22.8516C108.713 23.2617 109.322 23.4668 110.096 23.4668ZM127.938 27H122.84V0H127.938V27ZM136.902 7.98047L137.061 10.1074C138.408 8.45508 140.23 7.62891 142.527 7.62891C144.977 7.62891 146.658 8.5957 147.572 10.5293C148.908 8.5957 150.812 7.62891 153.285 7.62891C155.348 7.62891 156.883 8.23242 157.891 9.43945C158.898 10.6348 159.402 12.4395 159.402 14.8535V27H154.305V14.8711C154.305 13.793 154.094 13.0078 153.672 12.5156C153.25 12.0117 152.506 11.7598 151.439 11.7598C149.916 11.7598 148.861 12.4863 148.275 13.9395L148.293 27H143.213V14.8887C143.213 13.7871 142.996 12.9902 142.562 12.498C142.129 12.0059 141.391 11.7598 140.348 11.7598C138.906 11.7598 137.863 12.3574 137.219 13.5527V27H132.139V7.98047H136.902Z" fill="black"/>
</svg>
